<svg width="257" height="66" viewBox="0 0 257 66" fill="none" xmlns="http://www.w3.org/2000/svg">
<path fill-rule="evenodd" clip-rule="evenodd" d="M27.4038 0.217469C27.4144 0.140647 27.361 0.0783691 27.2845 0.0783691H8.8885C8.81195 0.0783691 8.74127 0.140647 8.73062 0.217469C8.71996 0.294293 8.77339 0.35657 8.84993 0.35657H27.2458C27.3225 0.35657 27.3932 0.294293 27.4038 0.217469ZM8.51023 3.5559C8.37627 3.5559 8.2828 3.44692 8.30144 3.31247C8.32007 3.17802 8.44379 3.06905 8.57774 3.06905H26.7658C26.8997 3.06905 26.9932 3.17802 26.9745 3.31247C26.956 3.44692 26.8323 3.5559 26.6982 3.5559H8.51023ZM26.5454 6.40748C26.572 6.21542 26.4386 6.05971 26.2471 6.05971H8.26698C8.07561 6.05971 7.8989 6.21542 7.87227 6.40748C7.84564 6.59953 7.97917 6.75522 8.17053 6.75522H26.1506C26.3421 6.75522 26.5188 6.59953 26.5454 6.40748ZM7.83083 9.95455C7.58207 9.95455 7.40845 9.75215 7.44309 9.50248C7.4777 9.2528 7.70745 9.0504 7.95621 9.0504H25.7286C25.9773 9.0504 26.1509 9.2528 26.1163 9.50248C26.0816 9.75215 25.8519 9.95455 25.603 9.95455H7.83083ZM25.6581 12.8061C25.7168 12.3836 25.423 12.0411 25.002 12.0411H7.85335C7.43234 12.0411 7.04356 12.3836 6.98497 12.8061C6.92639 13.2286 7.22016 13.5712 7.64117 13.5712H24.7898C25.2108 13.5712 25.5995 13.2286 25.6581 12.8061ZM7.37648 16.9792C6.84067 16.9792 6.46675 16.5432 6.54132 16.0055C6.6159 15.4677 7.11071 15.0318 7.64653 15.0318H24.3794C24.9151 15.0318 25.2891 15.4677 25.2145 16.0055C25.1399 16.5432 24.6451 16.9792 24.1093 16.9792H7.37648ZM24.2983 22.6128C24.6499 20.0776 22.8871 18.0224 20.3611 18.0224H10.8353C8.30934 18.0224 5.97664 20.0776 5.62511 22.6128L0.688081 58.216C0.336534 60.7512 2.09926 62.8061 4.62524 62.8061H14.151C16.677 62.8061 19.0097 60.7512 19.3613 58.216L24.2983 22.6128Z" fill="url(#paint0_linear_43_616)"/>
<path fill-rule="evenodd" clip-rule="evenodd" d="M47.6287 11.9195C47.6393 11.8427 47.5861 11.7804 47.5094 11.7804H29.1134C29.0369 11.7804 28.9662 11.8427 28.9556 11.9195C28.945 11.9963 28.9984 12.0586 29.0749 12.0586H47.4709C47.5474 12.0586 47.6181 11.9963 47.6287 11.9195ZM28.7352 15.2579C28.6011 15.2579 28.5078 15.149 28.5263 15.0145C28.545 14.8801 28.6687 14.7711 28.8028 14.7711H46.9909C47.1248 14.7711 47.2183 14.8801 47.1996 15.0145C47.1809 15.149 47.0572 15.2579 46.9233 15.2579H28.7352ZM46.7703 18.1095C46.7971 17.9175 46.6634 17.7618 46.4722 17.7618H28.492C28.3005 17.7618 28.1238 17.9175 28.0972 18.1095C28.0706 18.3016 28.204 18.4573 28.3955 18.4573H46.3757C46.567 18.4573 46.7437 18.3016 46.7703 18.1095ZM28.0558 21.6566C27.807 21.6566 27.6334 21.4541 27.6681 21.2044C27.7026 20.9548 27.9323 20.7524 28.1812 20.7524H45.9535C46.2023 20.7524 46.3759 20.9548 46.3412 21.2044C46.3067 21.4541 46.0768 21.6566 45.8281 21.6566H28.0558ZM45.883 24.5083C45.9416 24.0856 45.6479 23.7432 45.2269 23.7432H28.0783C27.6573 23.7432 27.2685 24.0856 27.2099 24.5083C27.1513 24.9307 27.445 25.2733 27.866 25.2733H45.0148C45.4358 25.2733 45.8246 24.9307 45.883 24.5083ZM27.6014 28.6812C27.0656 28.6812 26.6916 28.2453 26.7662 27.7076C26.8409 27.1696 27.3357 26.7337 27.8714 26.7337H44.6042C45.1402 26.7337 45.514 27.1696 45.4393 27.7076C45.3649 28.2453 44.8701 28.6812 44.3342 28.6812H27.6014ZM44.5232 34.3148C44.8747 31.7796 43.112 29.7244 40.586 29.7244H31.0603C28.5344 29.7244 26.2016 31.7796 25.8501 34.3148L22.5358 58.216C22.1842 60.7512 23.947 62.8061 26.4729 62.8061H35.9986C38.5248 62.8061 40.8574 60.7512 41.2089 58.216L44.5232 34.3148Z" fill="url(#paint1_linear_43_616)"/>
<path fill-rule="evenodd" clip-rule="evenodd" d="M68.1512 21.475C68.162 21.3983 68.1086 21.3359 68.0321 21.3359H49.6361C49.5594 21.3359 49.4887 21.3983 49.4781 21.475C49.4675 21.5519 49.521 21.6141 49.5975 21.6141H67.9934C68.0699 21.6141 68.1406 21.5519 68.1512 21.475ZM49.2578 24.8134C49.1239 24.8134 49.0303 24.7044 49.049 24.57C49.0675 24.4356 49.1912 24.3266 49.3253 24.3266H67.5134C67.6473 24.3266 67.7409 24.4356 67.7221 24.57C67.7034 24.7044 67.5797 24.8134 67.4458 24.8134H49.2578ZM67.293 27.665C67.3197 27.4731 67.186 27.3174 66.9947 27.3174H49.0145C48.8231 27.3174 48.6463 27.4731 48.6197 27.665C48.5931 27.8572 48.7268 28.0129 48.9181 28.0129H66.8983C67.0895 28.0129 67.2664 27.8572 67.293 27.665ZM48.5784 31.2122C48.3295 31.2122 48.1559 31.0097 48.1906 30.76C48.2251 30.5103 48.4549 30.3081 48.7037 30.3081H66.476C66.7249 30.3081 66.8985 30.5103 66.8637 30.76C66.8292 31.0097 66.5995 31.2122 66.3507 31.2122H48.5784ZM66.4058 34.0636C66.4642 33.6412 66.1704 33.2986 65.7494 33.2986H48.6008C48.1798 33.2986 47.7911 33.6412 47.7324 34.0636C47.6738 34.4863 47.9678 34.8287 48.3888 34.8287H65.5374C65.9584 34.8287 66.3471 34.4863 66.4058 34.0636ZM48.1241 38.2368C47.5882 38.2368 47.2144 37.8008 47.2888 37.2629C47.3634 36.7252 47.8582 36.2893 48.394 36.2893H65.1268C65.6627 36.2893 66.0365 36.7252 65.9621 37.2629C65.8875 37.8008 65.3927 38.2368 64.8569 38.2368H48.1241ZM65.0459 43.8703C65.3975 41.3352 63.6347 39.28 61.1086 39.28H51.5829C49.0569 39.28 46.7241 41.3352 46.3726 43.8703L44.3835 58.216C44.0319 60.7512 45.7944 62.8062 48.3206 62.8062H57.8463C60.3722 62.8062 62.705 60.7512 63.0566 58.216L65.0459 43.8703Z" fill="url(#paint2_linear_43_616)"/>
<path d="M82.99 63V17.92H92.44V37.03L109.8 17.92H120.65L104.34 36.19L121.49 63H111.41L98.46 42.21L92.44 48.72V63H82.99ZM127.204 23.73V16.31H137.494V23.73H127.204ZM127.974 63V36.82H123.004L123.844 29.82H137.424V63H127.974ZM145.47 63V29.82H154.22L154.57 32.97C155.924 31.9433 157.627 31.0567 159.68 30.31C161.78 29.5167 163.974 29.12 166.26 29.12C170.647 29.12 173.844 30.1467 175.85 32.2C177.857 34.2533 178.86 37.4267 178.86 41.72V63H169.41V42.21C169.41 39.97 168.944 38.3833 168.01 37.45C167.124 36.5167 165.444 36.05 162.97 36.05C161.524 36.05 160.054 36.3767 158.56 37.03C157.114 37.6833 155.9 38.5 154.92 39.48V63H145.47ZM202.751 63.7C197.011 63.7 192.461 62.2767 189.101 59.43C185.741 56.5367 184.061 52.1733 184.061 46.34C184.061 41.0667 185.461 36.89 188.261 33.81C191.107 30.6833 195.331 29.12 200.931 29.12C206.064 29.12 209.984 30.4733 212.691 33.18C215.444 35.84 216.821 39.34 216.821 43.68V49.7H192.811C193.324 52.36 194.537 54.18 196.451 55.16C198.411 56.14 201.164 56.63 204.711 56.63C206.484 56.63 208.281 56.4667 210.101 56.14C211.967 55.8133 213.554 55.3933 214.861 54.88V61.6C213.321 62.3 211.524 62.8133 209.471 63.14C207.417 63.5133 205.177 63.7 202.751 63.7ZM192.811 43.89H208.561V42.07C208.561 40.1567 208.001 38.6633 206.881 37.59C205.761 36.47 203.871 35.91 201.211 35.91C198.084 35.91 195.891 36.54 194.631 37.8C193.417 39.06 192.811 41.09 192.811 43.89ZM236.56 63.7C232.733 63.7 229.887 62.6967 228.02 60.69C226.2 58.6833 225.29 55.9533 225.29 52.5V37.1H220.6V29.82H225.29V22.68L234.74 19.88V29.82H243.14L242.58 37.1H234.74V51.87C234.74 53.69 235.16 54.95 236 55.65C236.84 56.3033 238.147 56.63 239.92 56.63C241.227 56.63 242.58 56.3967 243.98 55.93V62.44C242.953 62.86 241.833 63.1633 240.62 63.35C239.407 63.5833 238.053 63.7 236.56 63.7Z" fill="#333333"/>
<defs>
<linearGradient id="paint0_linear_43_616" x1="13.721" y1="31.3946" x2="10.044" y2="-27.0569" gradientUnits="userSpaceOnUse">
<stop stop-color="#2563EB"/>
<stop offset="1" stop-color="#153885"/>
</linearGradient>
<linearGradient id="paint1_linear_43_616" x1="34.7184" y1="46.0384" x2="29.7974" y2="-15.1664" gradientUnits="userSpaceOnUse">
<stop stop-color="#2563EB"/>
<stop offset="1" stop-color="#153885"/>
</linearGradient>
<linearGradient id="paint2_linear_43_616" x1="55.9237" y1="62.7893" x2="49.172" y2="-5.32931" gradientUnits="userSpaceOnUse">
<stop stop-color="#2563EB"/>
<stop offset="1" stop-color="#153885"/>
</linearGradient>
</defs>
</svg>
