<svg width="342" height="299" viewBox="0 0 342 299" fill="none" xmlns="http://www.w3.org/2000/svg">
<path fill-rule="evenodd" clip-rule="evenodd" d="M131.816 1.03212C131.867 0.667519 131.61 0.371948 131.242 0.371948H42.7549C42.3867 0.371948 42.0467 0.667519 41.9955 1.03212V1.03212C41.9442 1.39673 42.2012 1.6923 42.5694 1.6923H131.056C131.425 1.6923 131.765 1.39673 131.816 1.03212V1.03212ZM40.9354 16.8764C40.291 16.8764 39.8414 16.3592 39.9311 15.7211V15.7211C40.0207 15.083 40.6158 14.5658 41.2601 14.5658H128.747C129.391 14.5658 129.841 15.083 129.751 15.7211V15.7211C129.662 16.3592 129.067 16.8764 128.422 16.8764H40.9354ZM127.687 30.4101C127.815 29.4986 127.173 28.7596 126.252 28.7596H39.7653C38.8448 28.7596 37.9948 29.4986 37.8667 30.4101V30.4101C37.7386 31.3216 38.3809 32.0605 39.3014 32.0605H125.788C126.709 32.0605 127.559 31.3216 127.687 30.4101V30.4101ZM37.6674 47.2446C36.4708 47.2446 35.6357 46.284 35.8023 45.0991V45.0991C35.9688 43.9141 37.0739 42.9535 38.2705 42.9535H123.758C124.954 42.9535 125.789 43.9141 125.623 45.0991V45.0991C125.456 46.284 124.351 47.2446 123.154 47.2446H37.6674ZM123.419 60.7783C123.701 58.773 122.288 57.1473 120.263 57.1473H37.7757C35.7506 57.1473 33.8805 58.773 33.5987 60.7783V60.7783C33.3169 62.7836 34.73 64.4093 36.7551 64.4093H119.242C121.267 64.4093 123.137 62.7836 123.419 60.7783V60.7783ZM35.4819 80.5837C32.9046 80.5837 31.106 78.5147 31.4647 75.9624V75.9624C31.8234 73.4102 34.2035 71.3412 36.7809 71.3412H117.268C119.845 71.3412 121.644 73.4102 121.285 75.9624V75.9624C120.926 78.5147 118.546 80.5837 115.969 80.5837H35.4819ZM116.878 107.321C118.569 95.2889 110.09 85.535 97.9397 85.535H52.1194C39.9691 85.535 28.7485 95.2889 27.0576 107.321L3.30986 276.295C1.61887 288.327 10.0978 298.08 22.2481 298.08H68.0684C80.2187 298.08 91.4392 288.327 93.1302 276.295L116.878 107.321Z" fill="url(#paint0_linear_17_770)"/>
<path fill-rule="evenodd" clip-rule="evenodd" d="M229.1 56.5704C229.151 56.2058 228.895 55.9102 228.526 55.9102H140.039C139.671 55.9102 139.331 56.2058 139.28 56.5704V56.5704C139.229 56.935 139.486 57.2306 139.854 57.2306H228.341C228.709 57.2306 229.049 56.935 229.1 56.5704V56.5704ZM138.22 72.4147C137.575 72.4147 137.126 71.8975 137.215 71.2594V71.2594C137.305 70.6213 137.9 70.1041 138.545 70.1041H226.032C226.676 70.1041 227.126 70.6213 227.036 71.2594V71.2594C226.946 71.8975 226.351 72.4147 225.707 72.4147H138.22ZM224.971 85.9484C225.1 85.0369 224.457 84.2979 223.537 84.2979H137.05C136.129 84.2979 135.279 85.0369 135.151 85.9484V85.9484C135.023 86.8599 135.665 87.5988 136.586 87.5988H223.073C223.993 87.5988 224.843 86.8599 224.971 85.9484V85.9484ZM134.952 102.783C133.755 102.783 132.92 101.822 133.087 100.637V100.637C133.253 99.4524 134.358 98.4918 135.555 98.4918H221.042C222.239 98.4918 223.074 99.4524 222.907 100.637V100.637C222.741 101.822 221.635 102.783 220.439 102.783H134.952ZM220.703 116.317C220.985 114.311 219.572 112.686 217.547 112.686H135.06C133.035 112.686 131.165 114.311 130.883 116.317V116.317C130.601 118.322 132.014 119.948 134.039 119.948H216.527C218.552 119.948 220.422 118.322 220.703 116.317V116.317ZM132.766 136.122C130.189 136.122 128.39 134.053 128.749 131.501V131.501C129.108 128.948 131.488 126.879 134.065 126.879H214.552C217.13 126.879 218.928 128.948 218.569 131.501V131.501C218.211 134.053 215.831 136.122 213.253 136.122H132.766ZM214.162 162.859C215.853 150.827 207.374 141.073 195.224 141.073H149.404C137.254 141.073 126.033 150.827 124.342 162.859L108.4 276.295C106.709 288.327 115.188 298.08 127.338 298.08H173.158C185.309 298.08 196.529 288.327 198.22 276.295L214.162 162.859Z" fill="url(#paint1_linear_17_770)"/>
<path fill-rule="evenodd" clip-rule="evenodd" d="M327.816 101.921C327.868 101.557 327.611 101.261 327.243 101.261H238.756C238.387 101.261 238.047 101.557 237.996 101.921V101.921C237.945 102.286 238.202 102.581 238.57 102.581H327.057C327.425 102.581 327.765 102.286 327.816 101.921V101.921ZM236.936 117.765C236.292 117.765 235.842 117.248 235.932 116.61V116.61C236.021 115.972 236.616 115.455 237.261 115.455H324.748C325.392 115.455 325.842 115.972 325.752 116.61V116.61C325.662 117.248 325.067 117.765 324.423 117.765H236.936ZM323.688 131.299C323.816 130.388 323.173 129.649 322.253 129.649H235.766C234.845 129.649 233.995 130.388 233.867 131.299V131.299C233.739 132.211 234.382 132.95 235.302 132.95H321.789C322.709 132.95 323.56 132.211 323.688 131.299V131.299ZM233.668 148.134C232.471 148.134 231.636 147.173 231.803 145.988V145.988C231.969 144.803 233.074 143.843 234.271 143.843H319.758C320.955 143.843 321.79 144.803 321.623 145.988V145.988C321.457 147.173 320.352 148.134 319.155 148.134H233.668ZM319.42 161.667C319.701 159.662 318.288 158.036 316.263 158.036H233.776C231.751 158.036 229.881 159.662 229.599 161.667V161.667C229.317 163.673 230.731 165.298 232.756 165.298H315.243C317.268 165.298 319.138 163.673 319.42 161.667V161.667ZM231.483 181.473C228.905 181.473 227.107 179.404 227.465 176.851V176.851C227.824 174.299 230.204 172.23 232.781 172.23H313.268C315.846 172.23 317.644 174.299 317.286 176.851V176.851C316.927 179.404 314.547 181.473 311.97 181.473H231.483ZM312.879 208.21C314.57 196.178 306.091 186.424 293.94 186.424H248.12C235.97 186.424 224.749 196.178 223.058 208.21L213.49 276.295C211.799 288.327 220.277 298.08 232.428 298.08H278.248C290.398 298.08 301.619 288.327 303.31 276.295L312.879 208.21Z" fill="url(#paint2_linear_17_770)"/>
<defs>
<linearGradient id="paint0_linear_17_770" x1="66" y1="149" x2="48.7796" y2="-128.442" gradientUnits="userSpaceOnUse">
<stop stop-color="#2563EB"/>
<stop offset="1" stop-color="#153885"/>
</linearGradient>
<linearGradient id="paint1_linear_17_770" x1="167" y1="218.5" x2="143.952" y2="-72.0296" gradientUnits="userSpaceOnUse">
<stop stop-color="#2563EB"/>
<stop offset="1" stop-color="#153885"/>
</linearGradient>
<linearGradient id="paint2_linear_17_770" x1="269" y1="298" x2="237.375" y2="-25.3764" gradientUnits="userSpaceOnUse">
<stop stop-color="#2563EB"/>
<stop offset="1" stop-color="#153885"/>
</linearGradient>
</defs>
</svg>
