<svg width="260" height="105" viewBox="0 0 260 105" fill="none" xmlns="http://www.w3.org/2000/svg">
<path d="M50.553 14.1406C50.5894 14.0629 50.5494 14 50.4637 14H29.8602C29.7745 14 29.6755 14.0629 29.6391 14.1406C29.6028 14.2182 29.6428 14.2811 29.7285 14.2811H50.3319C50.4176 14.2811 50.5166 14.2182 50.553 14.1406Z" fill="url(#paint0_linear_21_1449)"/>
<path d="M28.3299 17.5139C28.1798 17.5139 28.1098 17.4038 28.1735 17.268C28.2372 17.1321 28.4104 17.022 28.5604 17.022H48.931C49.081 17.022 49.151 17.1321 49.0874 17.268C49.0237 17.4038 48.8505 17.5139 48.7004 17.5139H28.3299Z" fill="url(#paint1_linear_21_1449)"/>
<path d="M47.6217 20.3954C47.7127 20.2013 47.6127 20.044 47.3983 20.044H27.2606C27.0463 20.044 26.7988 20.2013 26.7078 20.3954C26.6169 20.5894 26.7169 20.7468 26.9312 20.7468H47.069C47.2833 20.7468 47.5308 20.5894 47.6217 20.3954Z" fill="url(#paint2_linear_21_1449)"/>
<path d="M25.5326 23.9796C25.254 23.9796 25.124 23.7751 25.2422 23.5228C25.3604 23.2705 25.6821 23.066 25.9608 23.066H45.8657C46.1443 23.066 46.2743 23.2705 46.1561 23.5228C46.0378 23.7751 45.7161 23.9796 45.4375 23.9796H25.5326Z" fill="url(#paint3_linear_21_1449)"/>
<path d="M44.5916 26.861C44.7917 26.4341 44.5717 26.088 44.1001 26.088H24.8938C24.4223 26.088 23.8778 26.4341 23.6777 26.861C23.4776 27.288 23.6977 27.6341 24.1692 27.6341H43.3756C43.8471 27.6341 44.3915 27.288 44.5916 26.861Z" fill="url(#paint4_linear_21_1449)"/>
<path d="M22.7882 31.0777C22.1881 31.0777 21.908 30.6372 22.1627 30.0938C22.4173 29.5505 23.1103 29.1099 23.7104 29.1099H42.4511C43.0512 29.1099 43.3312 29.5505 43.0766 30.0938C42.8219 30.6372 42.129 31.0777 41.5289 31.0777H22.7882Z" fill="url(#paint5_linear_21_1449)"/>
<path d="M41.2321 34.0295C41.7233 32.9815 41.1832 32.1319 40.0258 32.1319H23.3031C22.1458 32.1319 20.8094 32.9815 20.3183 34.0295L0.889265 75.4871C0.398135 76.5351 0.938214 77.3846 2.09557 77.3846H18.8183C19.9756 77.3846 21.312 76.5351 21.8031 75.4871L41.2321 34.0295Z" fill="url(#paint6_linear_21_1449)"/>
<path d="M69.4807 25.9651C69.5171 25.8875 69.4771 25.8246 69.3913 25.8246H48.7879C48.7022 25.8246 48.6032 25.8875 48.5668 25.9651C48.5304 26.0428 48.5705 26.1057 48.6562 26.1057H69.2596C69.3453 26.1057 69.4443 26.0428 69.4807 25.9651Z" fill="url(#paint7_linear_21_1449)"/>
<path d="M47.2575 29.3385C47.1075 29.3385 47.0375 29.2284 47.1012 29.0925C47.1648 28.9567 47.3381 28.8466 47.4881 28.8466H67.8587C68.0087 28.8466 68.0787 28.9567 68.015 29.0925C67.9514 29.2284 67.7781 29.3385 67.6281 29.3385H47.2575Z" fill="url(#paint8_linear_21_1449)"/>
<path d="M66.5494 32.2199C66.6403 32.0259 66.5403 31.8685 66.326 31.8685H46.1883C45.974 31.8685 45.7265 32.0259 45.6355 32.2199C45.5446 32.414 45.6446 32.5713 45.8589 32.5713H65.9966C66.211 32.5713 66.4584 32.414 66.5494 32.2199Z" fill="url(#paint9_linear_21_1449)"/>
<path d="M44.4603 35.8042C44.1817 35.8042 44.0516 35.5996 44.1699 35.3473C44.2881 35.0951 44.6098 34.8905 44.8884 34.8905H64.7933C65.072 34.8905 65.202 35.0951 65.0837 35.3473C64.9655 35.5996 64.6438 35.8042 64.3652 35.8042H44.4603Z" fill="url(#paint10_linear_21_1449)"/>
<path d="M63.5193 38.6856C63.7194 38.2586 63.4993 37.9125 63.0278 37.9125H43.8215C43.35 37.9125 42.8055 38.2586 42.6054 38.6856C42.4053 39.1125 42.6254 39.4587 43.0969 39.4587H62.3032C62.7748 39.4587 63.3192 39.1125 63.5193 38.6856Z" fill="url(#paint11_linear_21_1449)"/>
<path d="M41.7159 42.9023C41.1157 42.9023 40.8357 42.4618 41.0904 41.9184C41.345 41.375 42.038 40.9345 42.6381 40.9345H61.3787C61.9789 40.9345 62.2589 41.375 62.0042 41.9184C61.7496 42.4618 61.0566 42.9023 60.4565 42.9023H41.7159Z" fill="url(#paint12_linear_21_1449)"/>
<path d="M60.1598 45.854C60.651 44.806 60.1109 43.9565 58.9535 43.9565H42.2308C41.0734 43.9565 39.7371 44.806 39.246 45.854L25.3585 75.4871C24.8674 76.5351 25.4074 77.3846 26.5648 77.3846H43.2875C44.4449 77.3846 45.7812 76.5351 46.2724 75.4871L60.1598 45.854Z" fill="url(#paint13_linear_21_1449)"/>
<path d="M89.4249 35.6207C89.4613 35.543 89.4213 35.4801 89.3355 35.4801H68.7321C68.6464 35.4801 68.5474 35.543 68.511 35.6207C68.4746 35.6983 68.5146 35.7612 68.6004 35.7612H89.2038C89.2895 35.7612 89.3885 35.6983 89.4249 35.6207Z" fill="url(#paint14_linear_21_1449)"/>
<path d="M67.2017 38.9941C67.0517 38.9941 66.9817 38.8839 67.0454 38.7481C67.109 38.6122 67.2823 38.5021 67.4323 38.5021H87.8029C87.9529 38.5021 88.0229 38.6122 87.9592 38.7481C87.8956 38.8839 87.7223 38.9941 87.5723 38.9941H67.2017Z" fill="url(#paint15_linear_21_1449)"/>
<path d="M86.4936 41.8755C86.5845 41.6814 86.4845 41.5241 86.2702 41.5241H66.1325C65.9181 41.5241 65.6707 41.6814 65.5797 41.8755C65.4888 42.0696 65.5888 42.2269 65.8031 42.2269H85.9408C86.1552 42.2269 86.4026 42.0696 86.4936 41.8755Z" fill="url(#paint16_linear_21_1449)"/>
<path d="M64.4045 45.4597C64.1258 45.4597 63.9958 45.2552 64.1141 45.0029C64.2323 44.7506 64.554 44.5461 64.8326 44.5461H84.7375C85.0161 44.5461 85.1462 44.7506 85.0279 45.0029C84.9097 45.2552 84.588 45.4597 84.3094 45.4597H64.4045Z" fill="url(#paint17_linear_21_1449)"/>
<path d="M83.4635 48.3411C83.6636 47.9142 83.4435 47.5681 82.972 47.5681H63.7656C63.2941 47.5681 62.7497 47.9142 62.5496 48.3411C62.3495 48.7681 62.5695 49.1142 63.0411 49.1142H82.2474C82.7189 49.1142 83.2634 48.7681 83.4635 48.3411Z" fill="url(#paint18_linear_21_1449)"/>
<path d="M61.66 52.5579C61.0599 52.5579 60.7799 52.1174 61.0345 51.574C61.2892 51.0306 61.9821 50.5901 62.5822 50.5901H81.3229C81.923 50.5901 82.2031 51.0306 81.9484 51.574C81.6938 52.1174 81.0008 52.5579 80.4007 52.5579H61.66Z" fill="url(#paint19_linear_21_1449)"/>
<path d="M80.104 55.5096C80.5951 54.4616 80.0551 53.612 78.8977 53.612H62.175C61.0176 53.612 59.6813 54.4616 59.1901 55.5096L49.8277 75.4871C49.3366 76.5351 49.8767 77.3846 51.034 77.3846H67.7568C68.9141 77.3846 70.2505 76.5351 70.7416 75.4871L80.104 55.5096Z" fill="url(#paint20_linear_21_1449)"/>
<path d="M103.99 77V29.82H113.44V55.79L125.83 43.82H136.61L123.24 57.4L137.38 77H127.37L117.29 62.37L113.44 66.08V77H103.99ZM141.984 37.73V30.31H152.274V37.73H141.984ZM142.754 77V50.82H137.784L138.624 43.82H152.204V77H142.754ZM160.25 77V43.82H169L169.35 46.97C170.703 45.9433 172.406 45.0567 174.46 44.31C176.56 43.5167 178.753 43.12 181.04 43.12C185.426 43.12 188.623 44.1467 190.63 46.2C192.636 48.2533 193.64 51.4267 193.64 55.72V77H184.19V56.21C184.19 53.97 183.723 52.3833 182.79 51.45C181.903 50.5167 180.223 50.05 177.75 50.05C176.303 50.05 174.833 50.3767 173.34 51.03C171.893 51.6833 170.68 52.5 169.7 53.48V77H160.25ZM217.53 77.7C211.79 77.7 207.24 76.2767 203.88 73.43C200.52 70.5367 198.84 66.1733 198.84 60.34C198.84 55.0667 200.24 50.89 203.04 47.81C205.887 44.6833 210.11 43.12 215.71 43.12C220.843 43.12 224.763 44.4733 227.47 47.18C230.223 49.84 231.6 53.34 231.6 57.68V63.7H207.59C208.103 66.36 209.317 68.18 211.23 69.16C213.19 70.14 215.943 70.63 219.49 70.63C221.263 70.63 223.06 70.4667 224.88 70.14C226.747 69.8133 228.333 69.3933 229.64 68.88V75.6C228.1 76.3 226.303 76.8133 224.25 77.14C222.197 77.5133 219.957 77.7 217.53 77.7ZM207.59 57.89H223.34V56.07C223.34 54.1567 222.78 52.6633 221.66 51.59C220.54 50.47 218.65 49.91 215.99 49.91C212.863 49.91 210.67 50.54 209.41 51.8C208.197 53.06 207.59 55.09 207.59 57.89ZM251.339 77.7C247.513 77.7 244.666 76.6967 242.799 74.69C240.979 72.6833 240.069 69.9533 240.069 66.5V51.1H235.379V43.82H240.069V36.68L249.519 33.88V43.82H257.919L257.359 51.1H249.519V65.87C249.519 67.69 249.939 68.95 250.779 69.65C251.619 70.3033 252.926 70.63 254.699 70.63C256.006 70.63 257.359 70.3967 258.759 69.93V76.44C257.733 76.86 256.613 77.1633 255.399 77.35C254.186 77.5833 252.833 77.7 251.339 77.7Z" fill="#333333"/>
<defs>
<linearGradient id="paint0_linear_21_1449" x1="33.1774" y1="77.1646" x2="22.5732" y2="-94.0689" gradientUnits="userSpaceOnUse">
<stop offset="0.102263" stop-color="#2563EB"/>
<stop offset="1" stop-color="#153885"/>
</linearGradient>
<linearGradient id="paint1_linear_21_1449" x1="33.1774" y1="77.1646" x2="22.5732" y2="-94.0689" gradientUnits="userSpaceOnUse">
<stop offset="0.102263" stop-color="#2563EB"/>
<stop offset="1" stop-color="#153885"/>
</linearGradient>
<linearGradient id="paint2_linear_21_1449" x1="33.1774" y1="77.1646" x2="22.5732" y2="-94.0689" gradientUnits="userSpaceOnUse">
<stop offset="0.102263" stop-color="#2563EB"/>
<stop offset="1" stop-color="#153885"/>
</linearGradient>
<linearGradient id="paint3_linear_21_1449" x1="33.1774" y1="77.1646" x2="22.5732" y2="-94.0689" gradientUnits="userSpaceOnUse">
<stop offset="0.102263" stop-color="#2563EB"/>
<stop offset="1" stop-color="#153885"/>
</linearGradient>
<linearGradient id="paint4_linear_21_1449" x1="33.1774" y1="77.1646" x2="22.5732" y2="-94.0689" gradientUnits="userSpaceOnUse">
<stop offset="0.102263" stop-color="#2563EB"/>
<stop offset="1" stop-color="#153885"/>
</linearGradient>
<linearGradient id="paint5_linear_21_1449" x1="33.1774" y1="77.1646" x2="22.5732" y2="-94.0689" gradientUnits="userSpaceOnUse">
<stop offset="0.102263" stop-color="#2563EB"/>
<stop offset="1" stop-color="#153885"/>
</linearGradient>
<linearGradient id="paint6_linear_21_1449" x1="33.1774" y1="77.1646" x2="22.5732" y2="-94.0689" gradientUnits="userSpaceOnUse">
<stop offset="0.102263" stop-color="#2563EB"/>
<stop offset="1" stop-color="#153885"/>
</linearGradient>
<linearGradient id="paint7_linear_21_1449" x1="33.1774" y1="77.1646" x2="22.5732" y2="-94.0689" gradientUnits="userSpaceOnUse">
<stop offset="0.102263" stop-color="#2563EB"/>
<stop offset="1" stop-color="#153885"/>
</linearGradient>
<linearGradient id="paint8_linear_21_1449" x1="33.1774" y1="77.1646" x2="22.5732" y2="-94.0689" gradientUnits="userSpaceOnUse">
<stop offset="0.102263" stop-color="#2563EB"/>
<stop offset="1" stop-color="#153885"/>
</linearGradient>
<linearGradient id="paint9_linear_21_1449" x1="33.1774" y1="77.1646" x2="22.5732" y2="-94.0689" gradientUnits="userSpaceOnUse">
<stop offset="0.102263" stop-color="#2563EB"/>
<stop offset="1" stop-color="#153885"/>
</linearGradient>
<linearGradient id="paint10_linear_21_1449" x1="33.1774" y1="77.1646" x2="22.5732" y2="-94.0689" gradientUnits="userSpaceOnUse">
<stop offset="0.102263" stop-color="#2563EB"/>
<stop offset="1" stop-color="#153885"/>
</linearGradient>
<linearGradient id="paint11_linear_21_1449" x1="33.1774" y1="77.1646" x2="22.5732" y2="-94.0689" gradientUnits="userSpaceOnUse">
<stop offset="0.102263" stop-color="#2563EB"/>
<stop offset="1" stop-color="#153885"/>
</linearGradient>
<linearGradient id="paint12_linear_21_1449" x1="33.1774" y1="77.1646" x2="22.5732" y2="-94.0689" gradientUnits="userSpaceOnUse">
<stop offset="0.102263" stop-color="#2563EB"/>
<stop offset="1" stop-color="#153885"/>
</linearGradient>
<linearGradient id="paint13_linear_21_1449" x1="33.1774" y1="77.1646" x2="22.5732" y2="-94.0689" gradientUnits="userSpaceOnUse">
<stop offset="0.102263" stop-color="#2563EB"/>
<stop offset="1" stop-color="#153885"/>
</linearGradient>
<linearGradient id="paint14_linear_21_1449" x1="33.1774" y1="77.1646" x2="22.5732" y2="-94.0689" gradientUnits="userSpaceOnUse">
<stop offset="0.102263" stop-color="#2563EB"/>
<stop offset="1" stop-color="#153885"/>
</linearGradient>
<linearGradient id="paint15_linear_21_1449" x1="33.1774" y1="77.1646" x2="22.5732" y2="-94.0689" gradientUnits="userSpaceOnUse">
<stop offset="0.102263" stop-color="#2563EB"/>
<stop offset="1" stop-color="#153885"/>
</linearGradient>
<linearGradient id="paint16_linear_21_1449" x1="33.1774" y1="77.1646" x2="22.5732" y2="-94.0689" gradientUnits="userSpaceOnUse">
<stop offset="0.102263" stop-color="#2563EB"/>
<stop offset="1" stop-color="#153885"/>
</linearGradient>
<linearGradient id="paint17_linear_21_1449" x1="33.1774" y1="77.1646" x2="22.5732" y2="-94.0689" gradientUnits="userSpaceOnUse">
<stop offset="0.102263" stop-color="#2563EB"/>
<stop offset="1" stop-color="#153885"/>
</linearGradient>
<linearGradient id="paint18_linear_21_1449" x1="33.1774" y1="77.1646" x2="22.5732" y2="-94.0689" gradientUnits="userSpaceOnUse">
<stop offset="0.102263" stop-color="#2563EB"/>
<stop offset="1" stop-color="#153885"/>
</linearGradient>
<linearGradient id="paint19_linear_21_1449" x1="33.1774" y1="77.1646" x2="22.5732" y2="-94.0689" gradientUnits="userSpaceOnUse">
<stop offset="0.102263" stop-color="#2563EB"/>
<stop offset="1" stop-color="#153885"/>
</linearGradient>
<linearGradient id="paint20_linear_21_1449" x1="33.1774" y1="77.1646" x2="22.5732" y2="-94.0689" gradientUnits="userSpaceOnUse">
<stop offset="0.102263" stop-color="#2563EB"/>
<stop offset="1" stop-color="#153885"/>
</linearGradient>
</defs>
</svg>
